# xmcd
#
# Track frame offsets: 
#        150
#        11550
#        25610
#        40234
#        54588
#        68354
#        82713
#        96451
#        111773
#        125702
#        140082
#        154450
#        169433
#        184844
#        199840
#        215376
#        230669
#        244887
#        260131
#        273750
#        288030
#        303233
#        317865
#        332978
#
# Disc length: 4643 seconds
#
# Revision: 0
# Processed by: cddbd v1.5.1PL0 Copyright (c) Steve Scherf et al.
# Submitted via: ExactAudioCopy v0.95a4
#
DISCID=62122118
DTITLE=Louis Armstrong - St Louis Blues
DYEAR=1900
DGENRE=Blues
TTITLE0=My Heart
TTITLE1=Cornet Chop Suey
TTITLE2=Don't Forget To Mess Around
TTITLE3=Skid-Dat-De-Dat
TTITLE4=Melancholy Blues
TTITLE5=Twelth Street Rag
TTITLE6=Struttin' With Some Barbecue
TTITLE7=Savoy Blues
TTITLE8=Fireworks
TTITLE9=A Monday Date
TTITLE10=West End Blues
TTITLE11=Basin Street Blues
TTITLE12=Hear Me Talking To Ya
TTITLE13=St James Infirmary
TTITLE14=Mahogany Hall Stomp
TTITLE15=Ain't Misbehavin'
TTITLE16=Black In Blue
TTITLE17=After You've Gone
TTITLE18=St. Louis Blues
TTITLE19=I Can't Believe That You In Love With Me
TTITLE20=Dinah
TTITLE21=Tiger Rag
TTITLE22=Body And Soul
TTITLE23=Shine
EXTD=
EXTT0=
EXTT1=
EXTT2=
EXTT3=
EXTT4=
EXTT5=
EXTT6=
EXTT7=
EXTT8=
EXTT9=
EXTT10=
EXTT11=
EXTT12=
EXTT13=
EXTT14=
EXTT15=
EXTT16=
EXTT17=
EXTT18=
EXTT19=
EXTT20=
EXTT21=
EXTT22=
EXTT23=
PLAYORDER=
